<svg width="42" height="42" viewBox="0 0 42 42" fill="none" xmlns="http://www.w3.org/2000/svg">
<circle cx="21" cy="21" r="17" fill="white"/>
<path d="M20.8351 1.30273C10.0474 1.30273 1.30225 10.0479 1.30225 20.8355C1.30225 31.6232 10.0474 40.3684 20.8351 40.3684C31.6227 40.3684 40.3679 31.6232 40.3679 20.8355C40.3679 10.0479 31.6227 1.30273 20.8351 1.30273ZM32.8053 32.8057C29.8371 35.765 25.8735 37.5132 21.6868 37.7098C17.5001 37.9063 13.3902 36.5371 10.1579 33.8689C6.92556 31.2007 4.80241 27.4246 4.20212 23.2765C3.60183 19.1284 4.56741 14.9054 6.9107 11.4303C9.25399 7.95523 12.8071 5.47705 16.8778 4.47863C20.9485 3.48021 25.2451 4.03308 28.9304 6.02951C32.6157 8.02594 35.4257 11.3229 36.8129 15.278C38.2001 19.2331 38.0651 23.563 36.4342 27.424C35.5842 29.4359 34.3518 31.2636 32.8053 32.8057Z" fill="black"/>
<path d="M11.5828 19.6173L13.4244 21.4588L19.5327 15.3506V30.6023H22.1371V15.3506L28.2454 21.4588L30.087 19.6173L20.8349 10.3652L11.5828 19.6173V19.6173Z" fill="black"/>
</svg>
